<?xml version="1.0" encoding="UTF-8"?>
<svg width="289px" height="293px" viewBox="0 0 289 293" version="1.1" xmlns="http://www.w3.org/2000/svg" xmlns:xlink="http://www.w3.org/1999/xlink">
    <!-- Generator: Sketch 62 (91390) - https://sketch.com -->
    <title>face/Very Angry</title>
    <desc>Created with Sketch.</desc>
    <g id="face/Very-Angry" stroke="none" stroke-width="1" fill="none" fill-rule="evenodd">
        <path d="M195.648193,205.742798 C187.261657,201.289422 177.421377,202.042614 169.00004,206.020824 C158.706314,210.88389 150.747499,218.869283 143.697486,227.649864 C140.990543,231.020761 138.458006,234.536024 135.928336,238.048092 C134.887194,239.493561 133.846489,240.938447 132.79402,242.372032 C132.588772,242.640738 132.363649,242.930014 132.12515,243.236505 C130.439996,245.40207 128.13963,248.397076 127.259175,251.115005 C126.905739,252.206047 126.774119,253.259272 126.932764,254.218574 C127.009571,254.683016 127.151913,255.128132 127.369961,255.548545 C126.026468,255.89614 125.129125,255.565059 124.508835,254.897651 C123.526737,253.840951 123.182462,252.253688 123.168043,250.431638 C123.118384,243.905641 127.421312,234.392264 129.178267,230.471862 C129.359195,230.068147 129.514259,229.722096 129.636514,229.44246 C135.990874,214.902707 146.156691,200.739536 160.288147,192.902543 C173.980473,185.309944 190.185593,183.874719 204.351165,191.053 C220.000474,198.983539 224.269956,214.687223 226.043182,230.826214 C226.314815,233.298502 225.196205,235.57888 223.475851,237.299234 C221.534025,239.24106 218.805833,240.498 216.2562,240.498 C213.608639,240.498 211.184446,239.377079 209.411751,237.604384 C207.624435,235.817068 206.49522,233.364 206.47514,230.706002 L206.458107,229.158195 C206.376243,223.769253 205.998264,218.709456 204.04209,214.418522 C202.469585,210.969178 199.895477,207.998577 195.648193,205.742798 Z" id="ðŸ–-Ink" fill="#000000"></path>
    </g>
</svg>
