<?xml version="1.0" encoding="UTF-8"?>
<svg width="289px" height="293px" viewBox="0 0 289 293" version="1.1" xmlns="http://www.w3.org/2000/svg" xmlns:xlink="http://www.w3.org/1999/xlink">
    <!-- Generator: Sketch 62 (91390) - https://sketch.com -->
    <title>face/Calm</title>
    <desc>Created with Sketch.</desc>
    <g id="face/Calm" stroke="none" stroke-width="1" fill="none" fill-rule="evenodd">
        <path d="M171.041749,240.15887 C163.675125,242.292501 155.767928,242.483273 148.258906,240.279784 C141.4481,238.280984 134.454927,233.882403 129.442325,228.062017 C124.989403,222.891504 122.105494,216.608051 122.218765,209.900917 C122.23165,209.134907 122.505549,208.495522 122.926888,207.999233 C123.380478,207.464958 124.014007,207.098085 124.692682,206.938847 C125.390651,206.775083 126.128513,206.833141 126.756813,207.118539 C127.325595,207.376901 127.812904,207.815736 128.117618,208.457126 C128.887965,209.469087 129.655321,210.466061 130.425688,211.435384 C136.619652,219.083686 142.618023,224.799426 151.931921,226.849502 C156.985367,227.962038 162.032458,227.4687 166.663343,225.771293 C171.620483,223.954301 176.101584,220.7596 179.613092,216.671419 C181.200004,214.823854 183.073535,214.069743 184.905526,214.057068 C186.981571,214.042704 189.033559,215.007378 190.57944,216.549217 C192.09898,218.064783 193.116434,220.124293 193.208649,222.278695 C193.289584,224.169532 192.672753,226.144647 191.031753,227.906756 C185.626535,233.711247 178.621333,237.963558 171.041749,240.15887 Z" id="ðŸ–-Ink" fill="#000000"></path>
    </g>
</svg>
