<?xml version="1.0" encoding="UTF-8"?>
<svg width="289px" height="293px" viewBox="0 0 289 293" version="1.1" xmlns="http://www.w3.org/2000/svg" xmlns:xlink="http://www.w3.org/1999/xlink">
    <!-- Generator: Sketch 62 (91390) - https://sketch.com -->
    <title>face/Contempt</title>
    <desc>Created with Sketch.</desc>
    <g id="face/Contempt" stroke="none" stroke-width="1" fill="none" fill-rule="evenodd">
        <path d="M190.580838,219.822602 C187.280979,224.137269 181.305753,227.441635 174.614228,229.021959 C168.237661,230.527902 161.190418,230.466453 155.108614,228.149072 L154.586539,227.941176 C150.039387,226.052673 145.674617,222.239371 144.017177,218.259853 C143.358193,216.67763 143.135243,215.069584 143.586238,213.568908 C143.991922,212.219001 144.943012,210.976582 146.527174,209.909206 C147.024517,209.574134 147.691645,209.549745 148.327216,209.661813 C149.115834,209.800867 149.893132,210.16984 150.362097,210.668116 C152.964096,213.434928 156.73898,216.132349 161.207084,216.086453 C164.654507,216.051103 167.469871,214.689827 170.200003,213.151437 L172.118441,212.052717 C173.969461,210.996565 175.846656,210.004165 177.970548,209.550964 C181.772426,208.739097 186.383724,210.222313 189.193828,212.669867 C190.419132,213.737086 191.309321,214.991561 191.551236,216.342614 C191.754414,217.477328 191.469083,218.661462 190.580838,219.822602 Z" id="ðŸ–-Ink" fill="#000000"></path>
    </g>
</svg>
