<?xml version="1.0" encoding="UTF-8"?>
<svg width="289px" height="293px" viewBox="0 0 289 293" version="1.1" xmlns="http://www.w3.org/2000/svg" xmlns:xlink="http://www.w3.org/1999/xlink">
    <!-- Generator: Sketch 62 (91390) - https://sketch.com -->
    <title>face/Concerned Fear</title>
    <desc>Created with Sketch.</desc>
    <g id="face/Concerned-Fear" stroke="none" stroke-width="1" fill="none" fill-rule="evenodd">
        <path d="M166.6906,207.9332 C178.561529,207.9332 183.5886,209.8632 191.3116,214.4012 C199.0346,218.9392 207.2904,224.78835 209.2436,233.5502 C211.0656,241.7142 207.4806,249.6692 199.5456,252.7832 C195.1076,254.5262 143.967743,258.606343 135.9456,259.1392 C127.923457,259.672057 120.2672,259.0136 115.1156,253.6712 C101.8046,239.8662 120.2896,221.9682 132.1016,215.3592 C142.6486,209.4552 154.819671,207.9332 166.6906,207.9332 Z M163.945031,217.243381 C155.01579,217.243381 140.3876,223.774389 140.3876,226.9542 C140.3876,230.134011 183.022253,226.977236 183.936486,224.25702 C184.85072,221.536805 172.874272,217.243381 163.945031,217.243381 Z" id="ðŸ–-Ink" fill="#000000"></path>
    </g>
</svg>
