<?xml version="1.0" encoding="UTF-8"?>
<svg width="289px" height="293px" viewBox="0 0 289 293" version="1.1" xmlns="http://www.w3.org/2000/svg" xmlns:xlink="http://www.w3.org/1999/xlink">
    <!-- Generator: Sketch 62 (91390) - https://sketch.com -->
    <title>face/Loving Grin 1</title>
    <desc>Created with Sketch.</desc>
    <g id="face/Loving-Grin-1" stroke="none" stroke-width="1" fill="none" fill-rule="evenodd">
        <path d="M96.2841973,218.87 C96.3895,207.852 105.9375,205.952 115.0075,207.421 C130.3625,209.905 145.7745,211.653 161.3375,211.968 L164.0195,212.015 L164.0195,212.015 C164.4515,211.385 165.1735,210.907 166.1535,210.802 C174.7805,209.87 183.5935,210.021 192.2675,209.765 C199.8345,209.543 207.6105,208.786 215.1765,209.38 L215.778735,209.432992 C225.025914,210.328302 234.784223,215.047915 233.6675,225.9 C232.6405,235.949 223.0345,244.845 215.3635,250.429 C213.8125,251.548 212.2265,252.597 210.5945,253.553 C210.0825,254.206 209.3355,254.661 208.4725,254.754 C200.9185,258.834 192.5835,261.248 183.9555,262.052 C165.6635,263.754 144.3985,261.912 126.8295,253.985 C121.1175,251.408 115.7895,248.19 111.0795,244.238 C103.8165,238.141 96.2035,228.896 96.2841973,218.87 Z M168.3565,240.717 C161.0235,240.496 153.7025,241.522 146.7185,243.784 C141.9855,245.311 137.6715,248.248 133.1365,250.289 C148.4205,256.118 166.1765,257.389 181.8565,256.328 C188.7355,255.862 195.4045,254.276 201.6185,251.548 C200.6505,250.849 199.6705,250.138 198.6445,249.519 C195.5445,247.642 192.3025,246.045 188.9215,244.774 C182.3355,242.303 175.3865,240.939 168.3565,240.717 Z" id="ðŸ–-Ink" fill="#000000"></path>
    </g>
</svg>
