<?xml version="1.0" encoding="UTF-8"?>
<svg width="289px" height="293px" viewBox="0 0 289 293" version="1.1" xmlns="http://www.w3.org/2000/svg" xmlns:xlink="http://www.w3.org/1999/xlink">
    <!-- Generator: Sketch 62 (91390) - https://sketch.com -->
    <title>face/Old</title>
    <desc>Created with Sketch.</desc>
    <g id="face/Old" stroke="none" stroke-width="1" fill="none" fill-rule="evenodd">
        <path d="M176.02971,239.644154 C169.637887,239.69642 162.4524,237.297827 157.647928,235.419824 L156.395115,234.923639 C152.236202,233.257962 147.964779,231.345719 144.779349,228.136932 C143.760701,227.094114 142.676146,225.914068 142.125282,224.673113 C141.802605,223.946205 141.668471,223.193634 141.980225,222.445961 C143.132269,222.332728 144.223848,222.18535 145.257786,221.996378 C145.750099,221.906399 146.221692,221.813093 146.583373,221.81068 C147.916117,221.802185 149.234462,221.971757 150.551836,222.138281 C150.742616,222.162397 150.933374,222.186509 151.124192,222.21013 C152.149847,222.33705 153.170512,222.474162 154.189301,222.611004 C157.15276,223.00905 160.100624,223.40378 163.107057,223.54755 C165.277827,223.651743 167.553758,223.529757 169.849917,223.404802 C175.805483,223.080703 181.962683,222.638337 186.551339,226.809651 C187.753038,227.902069 188.255407,229.278258 188.255407,230.680051 C188.255407,232.383472 187.538373,234.117465 186.444757,235.477978 C183.967691,238.557867 180.155556,239.610416 176.02971,239.644154 Z" id="ðŸ–-Ink" fill="#000000"></path>
    </g>
</svg>
