<?xml version="1.0" encoding="UTF-8"?>
<svg width="289px" height="293px" viewBox="0 0 289 293" version="1.1" xmlns="http://www.w3.org/2000/svg" xmlns:xlink="http://www.w3.org/1999/xlink">
    <!-- Generator: Sketch 62 (91390) - https://sketch.com -->
    <title>face/Driven</title>
    <desc>Created with Sketch.</desc>
    <g id="face/Driven" stroke="none" stroke-width="1" fill="none" fill-rule="evenodd">
        <path d="M91.388,72.7683 C101.68,72.2763 110.75,76.8983 120.558,78.9983 C129.622,80.9403 138.552,79.7743 147.367,77.3043 C161.673,73.2953 167.587,95.1953 153.476,99.4633 C143.2,102.5713 132.38,102.7873 121.835,101.1853 C112.468,99.7613 104.616,95.2013 95.685,92.5463 C88.0204884,90.2689512 79.0041303,91.2154163 70.9099803,92.2875982 L67.768,92.7103 C63.098,93.3393 58.403,93.9703 53.779,94.8833 C49.767,95.6763 45.762,97.1273 41.667,97.2953 C41.202,97.3153 40.808,96.7113 41.101,96.3083 C45.8578889,89.7777222 55.0259896,84.6248116 62.3187464,81.1879671 L62.813,80.9563 C71.815,76.7593 81.365,73.2463 91.388,72.7683 Z M222.631889,65.001572 L223.2885,65.016 C234.0165,65.388 245.0515,71.743 247.9155,82.418 C248.0635,82.972 247.3805,83.345 246.9755,82.965 C238.154379,74.7062828 226.291005,82.5977143 217.457956,86.7341044 L214.213553,88.2329098 C202.826322,93.5306845 189.875019,99.7591481 177.2315,95.811 C171.2265,93.936 167.4125,87.766 169.1255,81.534 C170.64941,75.9890149 177.342493,71.3290091 183.139632,73.330419 L183.4025,73.426 C188.1125,75.2276667 193.90375,73.40225 198.768148,71.6025278 L202.76406,70.1019862 C209.189584,67.6637959 215.644819,64.9359718 222.631889,65.001572 L222.631889,65.001572 Z" id="ðŸ–-Ink" fill="#000000"></path>
    </g>
</svg>
