<?xml version="1.0" encoding="UTF-8"?>
<svg width="289px" height="293px" viewBox="0 0 289 293" version="1.1" xmlns="http://www.w3.org/2000/svg" xmlns:xlink="http://www.w3.org/1999/xlink">
    <!-- Generator: Sketch 62 (91390) - https://sketch.com -->
    <title>face/Concerned Fear</title>
    <desc>Created with Sketch.</desc>
    <g id="face/Concerned-Fear" stroke="none" stroke-width="1" fill="none" fill-rule="evenodd">
        <path d="M85.623,73.8212 L87.7924418,73.2263619 L90.0045001,72.6293513 L91.5003254,72.2338515 C101.775159,69.5444674 113.108082,67.1776694 123.297,68.3332 C127.013,68.7552 130.029,70.8462 130.555,74.7392 C130.998,78.0242 128.875,82.2622 125.262,82.8462 C113.295,84.7822 101.044,84.1542 89.022,86.1502 C83.035,87.1432 77.094,88.3762 71.13,89.4872 C66.595,90.3332 61.909,90.6302 57.335,91.3142 L58.386,91.4602 C58.754,91.5102 58.662,92.1292 58.299,92.1042 C56.791375,91.9537 55.2814531,91.9302937 53.7692344,92.035991 L53.121,92.0892 C52.134,92.2282 51.552,91.0502 52.432,90.4522 C58.005,86.6712 62.734,82.5732 68.974,79.7862 C74.371,77.3762 79.926,75.3892 85.623,73.8212 Z M179.1621,68.0224 C187.0621,60.0364 203.8621,63.1054 213.2601,66.7584 C218.6241,68.8444 223.7241,71.4814 227.9721,75.4264 L228.386213,75.8144925 L229.024136,76.4279569 C231.891581,79.2352765 235.089211,83.0982889 234.6341,87.1454 C234.5651,87.7624 234.2291,88.4674 233.5321,88.5914 C229.7681,89.2584 226.0711,87.2724 222.5951,86.0774 L220.293037,85.2874616 C216.836083,84.1099289 213.3571,82.9848545 209.7931,82.1724 C205.3611,81.1644 200.8401,80.5814 196.2901,80.6394 C191.6911,80.6994 186.7511,81.9974 182.3701,80.1714 C177.4841,78.1364 174.9511,72.2804 179.1621,68.0224 Z" id="ðŸ–-Ink" fill="#000000"></path>
    </g>
</svg>
