<?xml version="1.0" encoding="UTF-8"?>
<svg width="289px" height="293px" viewBox="0 0 289 293" version="1.1" xmlns="http://www.w3.org/2000/svg" xmlns:xlink="http://www.w3.org/1999/xlink">
    <!-- Generator: Sketch 62 (91390) - https://sketch.com -->
    <title>face/Loving Grin 1</title>
    <desc>Created with Sketch.</desc>
    <g id="face/Loving-Grin-1" stroke="none" stroke-width="1" fill="none" fill-rule="evenodd">
        <path d="M114.7074,50.6855 C117.6284,54.4775 114.5094,60.6745 110.2444,61.6545 C104.9624,62.8695 99.6264,62.1305 94.4404,63.6375 C89.6884,65.0185 85.1364,67.7855 81.0634,70.5435 C76.4184,73.6875 72.1404,77.1975 68.2094,81.1965 C65.8714,83.5755 62.9254,89.2115 59.3194,89.3165 C55.7344,89.4215 60.5464,78.2105 60.9444,77.2405 C63.7714,70.3355 67.7424,63.9815 72.7094,58.4155 C82.5104,47.4325 103.2674,35.8435 114.7074,50.6855 Z M224.159036,47.6504359 L226.6057,48.3301 C232.6597,50.0131 239.1227,52.0811 244.3167,55.7101 L244.724563,55.9989329 L245.353272,56.458844 C251.874046,61.3200934 261.096721,71.0199969 256.4787,79.4821 C256.1597,80.0651 255.4837,80.1231 254.9397,79.8851 C248.7957,77.1941 244.2407,71.8201 237.7057,69.5721 L236.50015,69.1615409 C230.171147,67.0297024 222.341185,64.7882515 215.5287,64.9921 C210.738954,66.5489889 204.269819,65.2594389 203.022929,59.4287798 L202.9667,59.1431 L202.8587,58.5391 C202.1407,54.5551 203.2087,49.4761 207.3277,47.5561 C212.97145,44.92585 218.477388,46.0961625 224.159036,47.6504359 Z" id="ðŸ–-Ink" fill="#000000"></path>
    </g>
</svg>
