<?xml version="1.0" encoding="UTF-8"?>
<svg width="289px" height="293px" viewBox="0 0 289 293" version="1.1" xmlns="http://www.w3.org/2000/svg" xmlns:xlink="http://www.w3.org/1999/xlink">
    <!-- Generator: Sketch 62 (91390) - https://sketch.com -->
    <title>face/Old</title>
    <desc>Created with Sketch.</desc>
    <g id="face/Old" stroke="none" stroke-width="1" fill="none" fill-rule="evenodd">
        <path d="M118.53429,79.7680988 C117.317758,79.9106848 116.107261,80.097547 114.897379,80.2897525 C111.367333,80.8521052 107.8564,81.5271297 104.36948,82.3138498 C97.7467896,83.8090043 91.1772706,85.6967567 84.7333151,87.8300044 C78.7033507,89.8269901 72.7671998,92.083769 66.8324925,94.3403369 C66.5157989,94.4607541 66.199109,94.5811698 65.8822838,94.7015918 C63.7868818,95.4983536 61.6984692,96.3910009 59.6036281,97.2867029 C56.4154582,98.6498851 53.2126678,100.022204 49.9443536,101.056289 C58.5551148,89.1503798 71.8238293,80.328547 84.5909251,74.0157103 C91.875359,70.4139625 99.6032726,67.5095184 107.377029,65.1296645 L111.706218,63.8287835 C118.080863,61.9480786 125.050815,60.2108515 131.038939,63.9608215 C133.407327,65.4440266 134.918619,67.749563 135.394602,70.2420298 C135.861386,72.6863293 135.328871,75.3070881 133.641078,77.494289 C132.170428,79.3996534 130.337932,80.4847925 128.387536,80.8566957 C126.234862,81.2671695 123.953511,80.816378 121.87681,79.7072256 C120.213068,79.5833049 119.722096,79.6280883 119.229893,79.6828202 L118.53429,79.7680988 Z M214.43213,80.9794236 C210.165597,80.0519166 205.940872,79.6795437 201.563665,79.8130512 C199.584208,79.8725314 197.669201,80.1783078 195.759277,80.4860248 C192.792996,80.9639365 189.838131,81.4575379 186.642392,80.8776949 C184.975143,80.5748977 183.555111,79.5997219 182.458274,78.3267269 C181.175979,76.8384886 180.327609,74.9364168 180.055575,73.1278488 C179.774546,71.259614 180.054149,69.6257955 180.745371,68.1830624 C181.56198,66.4786183 182.937687,65.0421873 184.60029,63.783895 C189.631241,59.9752285 198.263297,60.8912257 204.200778,61.6612548 C210.068138,62.4240507 215.902979,64.2434393 221.089813,67.1330647 C226.206828,69.9853958 230.655195,73.8275454 234.126512,78.5239749 C237.052247,82.4824883 238.430481,87.0384392 239.853737,91.6773738 C233.158782,86.0610835 222.913254,82.8205217 214.43213,80.9794236 Z" id="ðŸ–-Ink" fill="#000000"></path>
    </g>
</svg>
