<?xml version="1.0" encoding="UTF-8"?>
<svg width="289px" height="293px" viewBox="0 0 289 293" version="1.1" xmlns="http://www.w3.org/2000/svg" xmlns:xlink="http://www.w3.org/1999/xlink">
    <!-- Generator: Sketch 62 (91390) - https://sketch.com -->
    <title>face/Smile Big</title>
    <desc>Created with Sketch.</desc>
    <g id="face/Smile-Big" stroke="none" stroke-width="1" fill="none" fill-rule="evenodd">
        <path d="M65.9254,76.6741 C75.7474,66.6521 101.3594,56.9541 108.0784,75.4611 C109.3584,78.9861 106.6334,83.7391 102.9634,84.4701 C96.9534,85.6661 91.6214,83.0571 85.6514,83.5251 C80.8184,83.9061 75.7774,85.5211 71.9134,88.5151 C61.2114,96.8071 58.8574,110.8321 51.4004,121.3861 C51.0374,121.9001 50.3324,121.6841 50.2654,121.0781 C48.5674,105.7131 55.1674,87.6501 65.9254,76.6741 Z M194.0206,66.8082 C200.5386,64.5062 207.9196,64.7032 214.4716,66.7452 C221.0716,68.8032 227.1306,72.7112 231.7986,77.8172 C233.9166,80.1352 235.8766,82.6932 237.4486,85.4162 C238.2836,86.8592 239.1616,89.8402 240.1106,91.6152 C245.245093,94.5796058 247.439689,101.334701 242.842821,106.140464 L242.6356,106.3512 L242.0206,106.9612 C239.5496,109.4072 235.8236,110.4672 232.4506,109.4902 C224.9026,107.3062 223.9856,101.3612 221.3726,95.0512 C219.6466,90.8832 216.6896,87.1952 213.1046,84.4862 C204.6316,78.0862 190.7386,76.0472 180.5376,79.0632 C179.9946,79.2242 179.3566,78.5322 179.7436,78.0302 C181.6766,75.5262 182.7906,73.4712 185.3786,71.4512 C188.0056,69.4012 190.8726,67.9202 194.0206,66.8082 Z" id="ðŸ–-Ink" fill="#000000"></path>
    </g>
</svg>
