<?xml version="1.0" encoding="UTF-8"?>
<svg width="289px" height="293px" viewBox="0 0 289 293" version="1.1" xmlns="http://www.w3.org/2000/svg" xmlns:xlink="http://www.w3.org/1999/xlink">
    <!-- Generator: Sketch 62 (91390) - https://sketch.com -->
    <title>face/Eyes Closed</title>
    <desc>Created with Sketch.</desc>
    <g id="face/Eyes-Closed" stroke="none" stroke-width="1" fill="none" fill-rule="evenodd">
        <path d="M191.634193,174.394641 C188.935096,177.193987 185.36999,179.105754 181.367913,180.295732 C171.30965,183.286456 158.475622,181.693303 150.260436,178.645782 C148.556171,178.013644 146.963437,176.725048 146.048312,175.11365 C145.212412,173.641759 144.929477,171.91077 145.565716,170.145361 C145.746918,169.643897 145.967267,169.151539 146.18863,168.666648 C146.791277,167.347561 148.019458,166.321346 149.46204,165.734482 C150.960207,165.125004 152.663865,165.000599 154.030205,165.430262 C154.213756,165.487988 154.402027,165.547335 154.594782,165.608097 C159.799869,167.24887 168.337051,169.966044 175.409899,169.439413 C179.653911,169.123412 183.386915,167.62397 185.317652,163.740235 C186.335149,161.692395 186.053343,159.667058 185.150862,157.812727 C183.790166,155.016898 181.064689,152.584134 178.768455,150.90779 C175.531656,148.544107 172.079313,147.600482 168.508515,146.60419 C167.163013,146.22878 165.800236,145.848174 164.424715,145.392793 C163.971448,145.243158 163.574107,144.949174 163.276585,144.567009 C162.982731,144.189555 162.789851,143.72864 162.72939,143.266187 C162.666777,142.787275 162.744136,142.309698 162.966096,141.898081 C163.171987,141.516264 163.501275,141.180912 163.99334,140.960603 C170.979515,137.830669 180.015055,139.898917 186.834896,144.822934 C190.243367,147.283895 193.08628,150.445245 194.838513,153.977859 C196.46466,157.256278 197.155548,160.853243 196.518445,164.521349 C195.805094,168.627862 194.066972,171.871505 191.634193,174.394641 Z" id="ðŸ–-Ink" fill="#000000"></path>
    </g>
</svg>
