<?xml version="1.0" encoding="UTF-8"?>
<svg width="289px" height="293px" viewBox="0 0 289 293" version="1.1" xmlns="http://www.w3.org/2000/svg" xmlns:xlink="http://www.w3.org/1999/xlink">
    <!-- Generator: Sketch 62 (91390) - https://sketch.com -->
    <title>face/Old</title>
    <desc>Created with Sketch.</desc>
    <g id="face/Old" stroke="none" stroke-width="1" fill="none" fill-rule="evenodd">
        <path d="M210.882238,185.924199 C208.101743,190.095941 203.468972,192.77845 197.121054,192.486987 C184.5045,191.910097 169.446891,187.15002 158.88008,180.266926 C156.128254,178.474961 154.343912,175.609924 154.023919,172.540519 L153.454622,167.079765 L150.378172,171.627224 C150.05764,172.101019 149.734326,172.573495 149.410857,173.046205 C148.520054,174.348006 147.629997,175.649576 146.790017,176.983619 C143.566443,182.105733 140.611422,187.278696 137.927921,192.704365 C136.028157,196.546126 134.639141,200.843111 133.246133,205.178324 C130.894675,212.497754 128.62303,219.696429 123.598652,224.840723 C122.838977,225.618815 121.67117,225.897244 120.602356,225.7597 C119.660229,225.638459 118.736955,225.176544 118.284437,224.256337 C112.281263,212.048578 120.355669,197.337564 126.905585,187.11034 L127.598347,186.042365 C133.671845,176.800347 143.591061,164.56942 154.950956,162.906726 L156.251556,164.980884 L158.142417,163.719789 C161.234923,161.657268 165.317025,161.75321 168.890951,163.366833 L172.46509,164.979953 C179.118253,167.965637 185.680929,170.720436 192.879383,172.229357 C193.403952,172.339316 193.928091,172.441879 194.451426,172.537236 C194.945375,172.627237 195.442258,172.711484 195.941761,172.789626 C195.834073,172.298898 195.719079,171.810388 195.60382,171.323207 C195.481894,170.807841 195.359038,170.291279 195.227326,169.776315 C195.091324,169.244578 194.946219,168.715881 194.801286,168.189225 C194.224622,166.08955 193.573092,164.00866 192.800594,161.971325 C189.89417,154.312226 185.253562,147.148997 180.738376,140.316568 L180.207002,139.512828 C179.559635,138.533742 178.850833,137.512243 178.117422,136.455618 C174.596502,131.385477 170.691585,125.882915 170.414924,120.359436 C175.088786,120.653673 178.999744,123.557252 182.442437,126.085317 C187.166925,129.552355 191.545423,133.517086 195.517266,137.824564 C203.221312,146.180834 210.135753,156.863899 213.168061,167.907383 C214.904163,174.231128 214.140496,181.035639 210.882238,185.924199 L210.882238,185.924199 Z" id="ðŸ–-Ink" fill="#000000"></path>
    </g>
</svg>
