<?xml version="1.0" encoding="UTF-8"?>
<svg width="289px" height="293px" viewBox="0 0 289 293" version="1.1" xmlns="http://www.w3.org/2000/svg" xmlns:xlink="http://www.w3.org/1999/xlink">
    <!-- Generator: Sketch 62 (91390) - https://sketch.com -->
    <title>face/Smile Big</title>
    <desc>Created with Sketch.</desc>
    <g id="face/Smile-Big" stroke="none" stroke-width="1" fill="none" fill-rule="evenodd">
        <path d="M155.2009,145.0937 C167.4729,138.0657 198.2639,130.8827 200.2139,152.9677 C201.11069,163.130663 193.55511,171.551452 184.732334,175.308984 L184.4009,175.4477 C176.1259,178.8497 161.4589,182.6917 154.2979,175.3147 C148.3379,169.1747 156.2429,158.1657 163.6489,163.1957 C167.454921,165.779721 175.466095,163.875752 179.713009,162.646215 L179.9789,162.5687 C184.5619,161.2217 190.6719,156.9107 188.7769,151.2677 C187.0999,146.2757 179.9639,145.3637 175.4949,145.2017 C168.8239,144.9627 162.3319,146.5117 155.7219,147.0157 C154.6749,147.0957 154.3519,145.5797 155.2009,145.0937 Z" id="ðŸ–-Ink" fill="#000000"></path>
    </g>
</svg>
