<?xml version="1.0" encoding="UTF-8"?>
<svg width="289px" height="293px" viewBox="0 0 289 293" version="1.1" xmlns="http://www.w3.org/2000/svg" xmlns:xlink="http://www.w3.org/1999/xlink">
    <!-- Generator: Sketch 62 (91390) - https://sketch.com -->
    <title>face/Calm</title>
    <desc>Created with Sketch.</desc>
    <g id="face/Calm" stroke="none" stroke-width="1" fill="none" fill-rule="evenodd">
        <path d="M100.174958,124.170086 C97.7478949,122.617925 94.8928863,122.085145 91.7287079,123.524696 C89.2560287,124.649136 84.9192282,128.39769 81.9011027,133.325394 C79.8363008,136.696603 78.3721211,140.651472 78.6769434,144.770947 C78.7477349,145.727649 78.3942255,146.433054 77.8366311,146.954624 C77.3962557,147.366548 76.7601476,147.669274 76.0129997,147.763908 C75.3786744,147.844253 74.6686661,147.771772 74.0913555,147.591587 C72.9931588,147.248829 72.4119407,146.536464 72.1929489,145.954883 C70.0797393,140.342792 70.9901323,134.080043 73.3585073,128.429944 C76.5547725,120.804793 82.3592783,114.41778 86.1622145,112.358526 C92.669833,108.833475 100.346995,108.671236 106.863929,112.262379 C112.411467,115.318853 115.880218,120.253414 119.330136,125.2834 C120.06351,126.352661 120.791391,127.414081 121.543672,128.456831 C123.05132,130.546275 123.201386,132.618559 122.617532,134.395557 C121.970727,136.36415 120.32151,138.025511 118.259199,138.894957 C116.353068,139.69856 114.140756,139.811681 112.183119,138.985995 C110.529381,138.288488 109.0117,136.92878 108.051384,134.621701 C106.434021,130.736299 103.739338,126.449586 100.174958,124.170086 L100.174958,124.170086 Z M223.440775,132.814369 C221.778563,133.680468 220.478145,133.941602 218.634261,133.389159 C217.614596,133.082886 216.606823,132.495899 215.817824,131.706899 C215.035882,130.924958 214.471712,129.952552 214.252419,128.873803 C213.713072,126.211477 212.256412,123.719368 210.18061,122.094757 C208.406384,120.706172 206.16691,119.97019 203.68291,120.385402 C201.002485,120.832856 198.448729,122.551933 196.689869,124.578687 C196.102007,125.256875 195.641205,126.027105 195.177941,126.792136 C194.311333,128.22283 193.469024,129.552694 192.273843,130.603376 C191.82079,131.003129 191.138107,131.28 190.476901,131.28 C190.208169,131.28 189.935444,131.236271 189.675563,131.155276 C187.007679,128.47758 186.494623,126.446273 186.580635,124.431485 C186.670832,122.318684 187.503809,120.179493 188.849905,118.183565 C192.007516,113.501608 198.002761,109.662839 202.048399,108.79334 C207.588873,107.602708 213.091225,109.031983 217.502758,112.126467 C222.041966,115.310509 225.405508,120.254035 226.454161,125.825144 C226.706431,127.166899 226.599231,128.615171 226.088238,129.870886 C225.588922,131.097909 224.71878,132.148831 223.440775,132.814369 Z" id="ðŸ–-Ink" fill="#000000"></path>
    </g>
</svg>
