<?xml version="1.0" encoding="UTF-8"?>
<svg width="289px" height="293px" viewBox="0 0 289 293" version="1.1" xmlns="http://www.w3.org/2000/svg" xmlns:xlink="http://www.w3.org/1999/xlink">
    <!-- Generator: Sketch 62 (91390) - https://sketch.com -->
    <title>face/Eyes Closed</title>
    <desc>Created with Sketch.</desc>
    <g id="face/Eyes-Closed" stroke="none" stroke-width="1" fill="none" fill-rule="evenodd">
        <path d="M77.1362,104.5549 C79.0992,103.6899 80.7122,107.7389 81.1162,108.8429 L81.9517138,111.133296 C83.3146459,114.826319 84.879269,118.580934 87.7452,121.3219 C90.1442,123.6169 93.9882,125.5619 96.7712,122.8769 C99.4112,120.3299 98.1242,117.4609 98.5132,114.3359 C99.2152,108.6839 106.9222,103.0349 111.5562,108.9329 C122.0242,122.2589 105.8282,140.7909 90.9102,137.5399 C83.3233034,135.885917 77.2160347,129.802709 74.7069246,122.568683 L74.5782,122.1869 C73.0762,117.6039 71.5572,107.0159 77.1362,104.5549 Z M212.219928,113.835683 L212.1476,113.6667 C207.1616,102.3257 224.9476,97.4517 226.4556,107.6347 L226.551051,108.321775 C228.017921,119.626038 224.92704,134.8277 211.0816,135.9547 C195.5396,137.2207 189.0676,119.8797 190.4556,107.1547 C190.7046,104.8767 193.4686,104.5617 194.3226,106.6317 L194.504313,107.083458 C197.013691,113.478563 199.396659,125.777394 208.2386,125.7647 C214.145986,125.755829 213.864071,117.781513 212.219928,113.835683 L212.219928,113.835683 Z" id="ðŸ–-Ink" fill="#000000"></path>
    </g>
</svg>
