<?xml version="1.0" encoding="UTF-8"?>
<svg width="289px" height="293px" viewBox="0 0 289 293" version="1.1" xmlns="http://www.w3.org/2000/svg" xmlns:xlink="http://www.w3.org/1999/xlink">
    <!-- Generator: Sketch 62 (91390) - https://sketch.com -->
    <title>face/Contempt</title>
    <desc>Created with Sketch.</desc>
    <g id="face/Contempt" stroke="none" stroke-width="1" fill="none" fill-rule="evenodd">
        <path d="M101.116056,132.429995 C99.1003582,134.488343 96.4383728,135.649706 93.0314637,134.958836 C90.3692151,134.419447 85.3003252,131.742536 81.251062,127.620059 C78.4808238,124.799734 76.1645189,121.275596 75.5348483,117.193133 C75.3886144,116.245027 74.8854838,115.637224 74.2248528,115.254453 C73.7031014,114.952149 73.0151982,114.800275 72.2659115,114.876138 C71.6297705,114.940545 70.9542643,115.170885 70.4322827,115.476318 C69.4393366,116.057332 69.0332625,116.882185 68.9507107,117.498123 C68.1541083,123.441745 70.4499798,129.339186 74.0286493,134.311705 C78.8582802,141.02242 85.9507822,145.940005 90.1194807,147.091006 C97.2532735,149.061815 104.770166,147.49291 110.31224,142.527816 C114.744111,138.55788 117.01573,133.385744 119.123418,128.067181 L119.529847,127.036237 C120.003893,125.829408 120.474351,124.631454 120.972784,123.446204 C121.971768,121.071164 121.651825,119.018235 120.683197,117.41812 C119.610133,115.645482 117.629461,114.397695 115.424424,114.014451 C113.386375,113.660232 111.205318,114.047672 109.483593,115.292567 C108.029146,116.344207 106.856231,118.01047 106.439508,120.474443 C105.761825,124.480999 104.189738,129.077997 101.417669,132.111101 L101.116056,132.429995 Z M223.440775,109.240446 C221.778563,108.374347 220.478145,108.113213 218.634261,108.665656 C217.614596,108.971929 216.606823,109.558916 215.817824,110.347916 C215.035882,111.129857 214.471712,112.102263 214.252419,113.181012 C213.713072,115.843338 212.256412,118.335447 210.18061,119.960058 C208.406384,121.348643 206.16691,122.084626 203.68291,121.669413 C201.002485,121.221959 198.448729,119.502882 196.689869,117.476128 C196.199984,116.910971 195.798335,116.281896 195.409968,115.645177 L195.177941,115.262679 C194.311333,113.831986 193.469024,112.502121 192.273843,111.451439 C191.82079,111.051686 191.138107,110.774816 190.476901,110.774816 C190.208169,110.774816 189.935444,110.818544 189.675563,110.899539 C187.007679,113.577235 186.494623,115.608542 186.580635,117.62333 C186.670832,119.736131 187.503809,121.875322 188.849905,123.871251 C192.007516,128.553207 198.002761,132.391976 202.048399,133.261475 C207.588873,134.452107 213.091225,133.022832 217.502758,129.928348 C222.041966,126.744306 225.405508,121.80078 226.454161,116.229671 C226.706431,114.887916 226.599231,113.439644 226.088238,112.183929 C225.588922,110.956906 224.71878,109.905984 223.440775,109.240446 Z" id="ðŸ–-Ink" fill="#000000"></path>
    </g>
</svg>
