<?xml version="1.0" encoding="UTF-8"?>
<svg width="289px" height="293px" viewBox="0 0 289 293" version="1.1" xmlns="http://www.w3.org/2000/svg" xmlns:xlink="http://www.w3.org/1999/xlink">
    <!-- Generator: Sketch 62 (91390) - https://sketch.com -->
    <title>face/Concerned Fear</title>
    <desc>Created with Sketch.</desc>
    <g id="face/Concerned-Fear" stroke="none" stroke-width="1" fill="none" fill-rule="evenodd">
        <path d="M85.5415,102.7665 C98.4035,93.2705 117.6435,100.5795 120.8135,115.4365 C123.0165,116.5955 124.2155,118.4385 124.4765,121.1365 L124.5415,121.8115 L124.5415,121.8115 C124.8525,125.0165 122.0005,128.0505 119.1495,128.8955 C115.9405,129.8455 113.4005,129.3545 110.4215,127.9915 C107.565824,126.683824 106.572261,122.976324 107.090796,120.15545 L107.1375,119.9225 C107.9005,116.4215 104.8985,113.0295 101.8775,111.6425 C98.4685,110.0775 94.6435,111.0575 91.6795,113.1315 C88.3885,115.4325 85.6515,119.3685 84.7255,123.2905 L84.6335178,123.697736 C83.903116,127.083489 83.35438,133.43554 86.6395,135.3805 C87.2215,135.7235 86.8065,136.5115 86.2055,136.4075 C79.0675,135.1865 74.8165,130.8925 74.772786,123.2115 C74.7275,115.0775 79.0965,107.5245 85.5415,102.7665 Z M203.9801,100.0641 C216.8251,95.5081 232.8891,107.7471 227.9411,121.8831 C224.69192,131.16435 212.125909,127.443593 213.296402,118.140707 L213.3361,117.8571 C214.0811,113.0171 210.4151,110.7341 205.9211,112.3221 C199.2601,114.6771 195.6681,125.1431 198.7891,131.2491 C199.1721,131.9991 198.1011,132.6341 197.6551,131.9111 L197.227138,131.22391 C193.742344,125.673644 190.562845,121.576727 191.7081,114.4871 C192.7621,107.9521 197.7631,102.2681 203.9801,100.0641 Z" id="ðŸ–-Ink" fill="#000000"></path>
    </g>
</svg>
