<?xml version="1.0" encoding="UTF-8"?>
<svg width="289px" height="293px" viewBox="0 0 289 293" version="1.1" xmlns="http://www.w3.org/2000/svg" xmlns:xlink="http://www.w3.org/1999/xlink">
    <!-- Generator: Sketch 62 (91390) - https://sketch.com -->
    <title>face/Loving Grin 1</title>
    <desc>Created with Sketch.</desc>
    <g id="face/Loving-Grin-1" stroke="none" stroke-width="1" fill="none" fill-rule="evenodd">
        <path d="M196.8085,94.3093 C204.970734,87.345183 215.208102,92.4775284 221.217135,99.5311113 L222.27638,100.792164 C223.4783,102.23114 224.8095,103.9073 225.6095,105.6993 C232.2685,100.0293 241.2985,96.0393 249.9395,98.6293 C258.3195,101.1503 263.0985,109.1503 261.6595,117.7393 C260.026713,127.506513 252.636442,134.071361 244.695959,139.147715 L242.44409,140.577687 C232.901887,146.660718 223.972833,152.788755 216.1195,161.1503 C214.8385,162.5093 212.0695,162.3293 211.2295,160.5203 L210.55325,159.064425 L210.55325,159.064425 L209.8695,157.6093 C204.2985,145.7303 198.3295,133.9293 193.4285,121.7703 C189.7985,112.7593 188.6195,101.2893 196.8085,94.3093 Z M103.765463,100.617612 L105.0089,99.1798 C110.9889,92.2198 121.1189,87.5598 129.1099,94.3098 C137.6189,101.4998 135.9489,113.3898 132.1589,122.5598 C127.5949,133.6198 122.264322,144.435889 117.142811,155.284499 L116.0489,157.6098 C115.5889,158.5798 115.1389,159.5498 114.6899,160.5198 C113.8489,162.3298 111.0699,162.5098 109.7989,161.1498 C102.189809,153.0498 93.5807182,147.056412 84.3856017,141.165878 L81.6099,139.3998 C73.5389,134.2798 65.9089,127.6698 64.2489,117.7398 C62.8289,109.1698 67.5789,101.1198 75.9689,98.6288 C84.6289,96.0598 93.6389,100.0198 100.3089,105.6998 C101.1039,103.8623 102.47265,102.131675 103.765463,100.617612 L103.765463,100.617612 Z" id="ðŸ–-Ink" fill="#000000"></path>
    </g>
</svg>
